<svg xmlns="http://www.w3.org/2000/svg" width="920" height="640">
<rect x="0" y="0" width="100%" height="100%" fill="white"/>
<text x="460.0" y="36" text-anchor="middle" font-size="24">E-S Curve (3-state Potts Mean-Field)</text>
<line x1="90" y1="550" x2="880" y2="550" stroke="black" stroke-width="2"/>
<line x1="90" y1="70" x2="90" y2="550" stroke="black" stroke-width="2"/>
<line x1="90.0" y1="550" x2="90.0" y2="558" stroke="black"/>
<text x="90.0" y="578" text-anchor="middle" font-size="13">-0.09</text>
<line x1="82" y1="550.0" x2="90" y2="550.0" stroke="black"/>
<text x="76" y="554.0" text-anchor="end" font-size="13">-0.08</text>
<line x1="248.0" y1="550" x2="248.0" y2="558" stroke="black"/>
<text x="248.0" y="578" text-anchor="middle" font-size="13">0.05</text>
<line x1="82" y1="454.0" x2="90" y2="454.0" stroke="black"/>
<text x="76" y="458.0" text-anchor="end" font-size="13">0.17</text>
<line x1="406.0" y1="550" x2="406.0" y2="558" stroke="black"/>
<text x="406.0" y="578" text-anchor="middle" font-size="13">0.19</text>
<line x1="82" y1="358.0" x2="90" y2="358.0" stroke="black"/>
<text x="76" y="362.0" text-anchor="end" font-size="13">0.42</text>
<line x1="564.0" y1="550" x2="564.0" y2="558" stroke="black"/>
<text x="564.0" y="578" text-anchor="middle" font-size="13">0.33</text>
<line x1="82" y1="262.0" x2="90" y2="262.0" stroke="black"/>
<text x="76" y="266.0" text-anchor="end" font-size="13">0.67</text>
<line x1="722.0" y1="550" x2="722.0" y2="558" stroke="black"/>
<text x="722.0" y="578" text-anchor="middle" font-size="13">0.47</text>
<line x1="82" y1="166.0" x2="90" y2="166.0" stroke="black"/>
<text x="76" y="170.0" text-anchor="end" font-size="13">0.92</text>
<line x1="880.0" y1="550" x2="880.0" y2="558" stroke="black"/>
<text x="880.0" y="578" text-anchor="middle" font-size="13">0.61</text>
<line x1="82" y1="70.0" x2="90" y2="70.0" stroke="black"/>
<text x="76" y="74.0" text-anchor="end" font-size="13">1.16</text>
<text x="460.0" y="610" text-anchor="middle" font-size="18">Internal Energy U</text>
<text x="30" y="320.0" transform="rotate(-90,30,320.0)" text-anchor="middle" font-size="18">Entropy S</text>
<circle cx="195.02" cy="520.53" r="3" fill="#1f77b4" opacity="0.85"/>
<circle cx="195.04" cy="520.46" r="3" fill="#1f77b4" opacity="0.85"/>
<circle cx="195.40" cy="519.20" r="3" fill="#1f77b4" opacity="0.85"/>
<circle cx="197.44" cy="513.72" r="3" fill="#1f77b4" opacity="0.85"/>
<circle cx="203.00" cy="501.56" r="3" fill="#1f77b4" opacity="0.85"/>
<circle cx="213.28" cy="482.58" r="3" fill="#1f77b4" opacity="0.85"/>
<circle cx="228.47" cy="458.41" r="3" fill="#1f77b4" opacity="0.85"/>
<circle cx="247.88" cy="431.27" r="3" fill="#1f77b4" opacity="0.85"/>
<circle cx="270.46" cy="403.12" r="3" fill="#1f77b4" opacity="0.85"/>
<circle cx="295.05" cy="375.47" r="3" fill="#1f77b4" opacity="0.85"/>
<circle cx="320.65" cy="349.27" r="3" fill="#1f77b4" opacity="0.85"/>
<circle cx="346.44" cy="325.03" r="3" fill="#1f77b4" opacity="0.85"/>
<circle cx="371.82" cy="302.99" r="3" fill="#1f77b4" opacity="0.85"/>
<circle cx="396.41" cy="283.14" r="3" fill="#1f77b4" opacity="0.85"/>
<circle cx="419.93" cy="265.41" r="3" fill="#1f77b4" opacity="0.85"/>
<circle cx="442.25" cy="249.62" r="3" fill="#1f77b4" opacity="0.85"/>
<circle cx="420.52" cy="264.40" r="3" fill="#1f77b4" opacity="0.85"/>
<circle cx="420.52" cy="264.40" r="3" fill="#1f77b4" opacity="0.85"/>
<circle cx="138.51" cy="520.53" r="3" fill="black" opacity="0.95"/>
<circle cx="138.51" cy="520.53" r="3" fill="black" opacity="0.95"/>
<circle cx="138.51" cy="520.52" r="3" fill="black" opacity="0.95"/>
<circle cx="138.51" cy="520.52" r="3" fill="black" opacity="0.95"/>
<circle cx="138.59" cy="520.23" r="3" fill="black" opacity="0.95"/>
<circle cx="138.59" cy="520.23" r="3" fill="black" opacity="0.95"/>
<circle cx="139.17" cy="518.69" r="3" fill="black" opacity="0.95"/>
<circle cx="139.17" cy="518.69" r="3" fill="black" opacity="0.95"/>
<circle cx="141.03" cy="514.64" r="3" fill="black" opacity="0.95"/>
<circle cx="141.03" cy="514.64" r="3" fill="black" opacity="0.95"/>
<circle cx="145.02" cy="507.28" r="3" fill="black" opacity="0.95"/>
<circle cx="145.02" cy="507.28" r="3" fill="black" opacity="0.95"/>
<circle cx="151.84" cy="496.45" r="3" fill="black" opacity="0.95"/>
<circle cx="151.84" cy="496.45" r="3" fill="black" opacity="0.95"/>
<circle cx="161.98" cy="482.29" r="3" fill="black" opacity="0.95"/>
<circle cx="161.98" cy="482.29" r="3" fill="black" opacity="0.95"/>
<circle cx="175.75" cy="465.15" r="3" fill="black" opacity="0.95"/>
<circle cx="175.75" cy="465.15" r="3" fill="black" opacity="0.95"/>
<circle cx="193.33" cy="445.42" r="3" fill="black" opacity="0.95"/>
<circle cx="193.33" cy="445.42" r="3" fill="black" opacity="0.95"/>
<circle cx="214.76" cy="423.50" r="3" fill="black" opacity="0.95"/>
<circle cx="214.76" cy="423.50" r="3" fill="black" opacity="0.95"/>
<circle cx="240.03" cy="399.77" r="3" fill="black" opacity="0.95"/>
<circle cx="240.03" cy="399.77" r="3" fill="black" opacity="0.95"/>
<circle cx="269.06" cy="374.59" r="3" fill="black" opacity="0.95"/>
<circle cx="269.06" cy="374.59" r="3" fill="black" opacity="0.95"/>
<circle cx="301.69" cy="348.27" r="3" fill="black" opacity="0.95"/>
<circle cx="301.69" cy="348.27" r="3" fill="black" opacity="0.95"/>
<circle cx="337.78" cy="321.08" r="3" fill="black" opacity="0.95"/>
<circle cx="337.78" cy="321.08" r="3" fill="black" opacity="0.95"/>
<circle cx="377.25" cy="293.19" r="3" fill="black" opacity="0.95"/>
<circle cx="377.25" cy="293.19" r="3" fill="black" opacity="0.95"/>
<circle cx="463.31" cy="235.60" r="3" fill="black" opacity="0.95"/>
<circle cx="483.10" cy="223.14" r="3" fill="black" opacity="0.95"/>
<circle cx="501.64" cy="212.08" r="3" fill="black" opacity="0.95"/>
<circle cx="518.99" cy="202.25" r="3" fill="black" opacity="0.95"/>
<circle cx="535.21" cy="193.49" r="3" fill="black" opacity="0.95"/>
<circle cx="550.37" cy="185.67" r="3" fill="black" opacity="0.95"/>
<circle cx="564.54" cy="178.68" r="3" fill="black" opacity="0.95"/>
<circle cx="577.79" cy="172.41" r="3" fill="black" opacity="0.95"/>
<circle cx="590.20" cy="166.77" r="3" fill="black" opacity="0.95"/>
<circle cx="601.82" cy="161.70" r="3" fill="black" opacity="0.95"/>
<circle cx="612.72" cy="157.11" r="3" fill="black" opacity="0.95"/>
<circle cx="622.96" cy="152.96" r="3" fill="black" opacity="0.95"/>
<circle cx="632.57" cy="149.19" r="3" fill="black" opacity="0.95"/>
<circle cx="641.63" cy="145.76" r="3" fill="black" opacity="0.95"/>
<circle cx="650.15" cy="142.63" r="3" fill="black" opacity="0.95"/>
<circle cx="658.20" cy="139.77" r="3" fill="black" opacity="0.95"/>
<circle cx="665.80" cy="137.15" r="3" fill="black" opacity="0.95"/>
<circle cx="672.98" cy="134.75" r="3" fill="black" opacity="0.95"/>
<circle cx="679.78" cy="132.54" r="3" fill="black" opacity="0.95"/>
<circle cx="686.23" cy="130.50" r="3" fill="black" opacity="0.95"/>
<circle cx="692.35" cy="128.62" r="3" fill="black" opacity="0.95"/>
<circle cx="698.15" cy="126.88" r="3" fill="black" opacity="0.95"/>
<circle cx="703.68" cy="125.27" r="3" fill="black" opacity="0.95"/>
<circle cx="708.94" cy="123.77" r="3" fill="black" opacity="0.95"/>
<circle cx="713.94" cy="122.38" r="3" fill="black" opacity="0.95"/>
<circle cx="718.72" cy="121.09" r="3" fill="black" opacity="0.95"/>
<circle cx="723.28" cy="119.88" r="3" fill="black" opacity="0.95"/>
<circle cx="727.64" cy="118.75" r="3" fill="black" opacity="0.95"/>
<circle cx="731.81" cy="117.70" r="3" fill="black" opacity="0.95"/>
<circle cx="735.80" cy="116.71" r="3" fill="black" opacity="0.95"/>
<circle cx="739.62" cy="115.79" r="3" fill="black" opacity="0.95"/>
<circle cx="743.28" cy="114.92" r="3" fill="black" opacity="0.95"/>
<circle cx="746.79" cy="114.10" r="3" fill="black" opacity="0.95"/>
<circle cx="750.17" cy="113.33" r="3" fill="black" opacity="0.95"/>
<circle cx="753.41" cy="112.61" r="3" fill="black" opacity="0.95"/>
<circle cx="756.53" cy="111.92" r="3" fill="black" opacity="0.95"/>
<circle cx="759.53" cy="111.28" r="3" fill="black" opacity="0.95"/>
<circle cx="762.42" cy="110.67" r="3" fill="black" opacity="0.95"/>
<circle cx="765.20" cy="110.09" r="3" fill="black" opacity="0.95"/>
<circle cx="767.89" cy="109.55" r="3" fill="black" opacity="0.95"/>
<circle cx="770.47" cy="109.03" r="3" fill="black" opacity="0.95"/>
<circle cx="772.97" cy="108.54" r="3" fill="black" opacity="0.95"/>
<circle cx="775.39" cy="108.07" r="3" fill="black" opacity="0.95"/>
<circle cx="777.72" cy="107.63" r="3" fill="black" opacity="0.95"/>
<circle cx="779.97" cy="107.21" r="3" fill="black" opacity="0.95"/>
<circle cx="782.15" cy="106.81" r="3" fill="black" opacity="0.95"/>
<circle cx="784.27" cy="106.43" r="3" fill="black" opacity="0.95"/>
<circle cx="786.31" cy="106.06" r="3" fill="black" opacity="0.95"/>
<circle cx="788.29" cy="105.71" r="3" fill="black" opacity="0.95"/>
<circle cx="790.21" cy="105.38" r="3" fill="black" opacity="0.95"/>
<circle cx="792.07" cy="105.07" r="3" fill="black" opacity="0.95"/>
<circle cx="793.88" cy="104.76" r="3" fill="black" opacity="0.95"/>
<circle cx="795.63" cy="104.47" r="3" fill="black" opacity="0.95"/>
<circle cx="797.33" cy="104.20" r="3" fill="black" opacity="0.95"/>
<circle cx="798.98" cy="103.93" r="3" fill="black" opacity="0.95"/>
<circle cx="800.59" cy="103.68" r="3" fill="black" opacity="0.95"/>
<circle cx="802.15" cy="103.43" r="3" fill="black" opacity="0.95"/>
<circle cx="803.67" cy="103.20" r="3" fill="black" opacity="0.95"/>
<circle cx="805.15" cy="102.97" r="3" fill="black" opacity="0.95"/>
<circle cx="806.58" cy="102.76" r="3" fill="black" opacity="0.95"/>
<circle cx="807.98" cy="102.55" r="3" fill="black" opacity="0.95"/>
<circle cx="809.35" cy="102.35" r="3" fill="black" opacity="0.95"/>
<circle cx="810.67" cy="102.16" r="3" fill="black" opacity="0.95"/>
<circle cx="811.97" cy="101.98" r="3" fill="black" opacity="0.95"/>
<circle cx="813.23" cy="101.80" r="3" fill="black" opacity="0.95"/>
<circle cx="814.46" cy="101.63" r="3" fill="black" opacity="0.95"/>
<circle cx="815.66" cy="101.46" r="3" fill="black" opacity="0.95"/>
<circle cx="816.83" cy="101.30" r="3" fill="black" opacity="0.95"/>
<circle cx="817.97" cy="101.15" r="3" fill="black" opacity="0.95"/>
<circle cx="819.09" cy="101.00" r="3" fill="black" opacity="0.95"/>
<circle cx="820.17" cy="100.86" r="3" fill="black" opacity="0.95"/>
<circle cx="821.24" cy="100.72" r="3" fill="black" opacity="0.95"/>
<circle cx="822.28" cy="100.59" r="3" fill="black" opacity="0.95"/>
<circle cx="823.29" cy="100.46" r="3" fill="black" opacity="0.95"/>
<circle cx="824.29" cy="100.34" r="3" fill="black" opacity="0.95"/>
<circle cx="825.26" cy="100.22" r="3" fill="black" opacity="0.95"/>
<circle cx="826.21" cy="100.10" r="3" fill="black" opacity="0.95"/>
<circle cx="827.13" cy="99.99" r="3" fill="black" opacity="0.95"/>
<circle cx="828.04" cy="99.88" r="3" fill="black" opacity="0.95"/>
<circle cx="828.93" cy="99.77" r="3" fill="black" opacity="0.95"/>
<circle cx="829.80" cy="99.67" r="3" fill="black" opacity="0.95"/>
<circle cx="830.66" cy="99.57" r="3" fill="black" opacity="0.95"/>
<circle cx="831.49" cy="99.47" r="3" fill="black" opacity="0.95"/>
<rect x="700" y="85" width="180" height="62" fill="white" stroke="#ddd"/>
<circle cx="718" cy="105" r="4" fill="black"/><text x="734" y="110" font-size="14">Stable</text>
<circle cx="718" cy="130" r="4" fill="#1f77b4"/><text x="734" y="135" font-size="14">Metastable</text>
</svg>